ply
format ascii 1.0
comment photon map dump
element vertex 100
property float x
property float y
property float z
property float red
property float green
property float blue
end_header
-184.103 -170.509 1306 6888.73 5553.56 4475.64
-278 -176.501 1286.51 2794.45 2206.23 1702.88
-122.164 -185.309 1227.84 1624.98 4123.68 643.647
6.38269 76.5224 1306 6888.73 5553.56 4475.64
138.49 278 978.682 11095.7 8760.1 6761.49
-147.06 69.0868 1306 6888.73 5553.56 4475.64
-172.462 96.2549 1306 6888.73 5553.56 4475.64
-134.735 278 1077.58 10692.3 8441.55 6515.62
278 -88.9203 767.675 12390.4 9579.88 7081.81
-278 -110.758 1044.54 6888.73 5553.56 4475.64
260.913 145.116 1306 6888.73 5553.56 4475.64
91.9686 278 1229.12 4640 3663.28 2827.51
-278 43.9315 1150.48 4883.4 3775.68 2791.13
278 -142.709 813.032 6888.73 5553.56 4475.64
-278 266.895 814.986 6888.73 5553.56 4475.64
278 96.064 777.957 6888.73 5553.56 4475.64
230.677 -278 1233.95 6888.73 5553.56 4475.64
-160.726 251.168 1306 6888.73 5553.56 4475.64
-278 170.233 857.558 13130.5 10366.6 8001.46
-278 -224.384 1043.71 6888.73 5553.56 4475.64
-120.426 -192.551 1070.43 4144.6 10739.9 1750.3
-278 -24.4349 1118.07 2738.51 6949.47 1084.71
130.429 -141.864 911.831 1473.3 12017.5 379.319
-31.9171 -278 793.446 6888.73 5553.56 4475.64
278 272.597 908.919 6888.73 5553.56 4475.64
276.615 278 909.047 3420.22 284.485 0
278 277.488 907.001 1387.31 113.006 0
-278 111.919 1046.66 2585.36 21.728 0
-278 112.418 1009.09 6888.73 5553.56 4475.64
-36.4099 -278 1047.13 6888.73 5553.56 4475.64
-77.3657 154.726 1306 6888.73 5553.56 4475.64
-278 233.472 1274.07 2019.06 1594.05 1230.37
-154.344 245.322 1306 6888.73 5553.56 4475.64
-182.192 -13.7849 1306 6888.73 5553.56 4475.64
-22.8654 257.248 1306 6888.73 5553.56 4475.64
-278 103.527 1289.53 760.803 600.655 463.616
-257.945 106.043 1306 364.086 923.935 144.213
-228.187 79.9818 1306 6888.73 5553.56 4475.64
-278 235.4 1290.01 6888.73 5553.56 4475.64
-278 -54.0517 843.75 6888.73 5553.56 4475.64
-213.375 -278 865.055 1183.47 3066.73 499.79
120.775 -238.238 915.078 276.634 702.009 109.574
-278 109.512 955.483 6888.73 5553.56 4475.64
32.2934 -278 981.674 6888.73 5553.56 4475.64
-238.469 -157.374 1306 6888.73 5553.56 4475.64
-273.354 -278 1200.75 8850.53 6987.5 5393.31
-278 -275.576 1201.81 8023.86 6203.78 4586.07
-278 175.842 952.48 6888.73 5553.56 4475.64
66.9044 191.654 1306 6888.73 5553.56 4475.64
197.404 -278 1249.93 1574.35 1242.95 959.374
225.445 -253.503 1306 1146 886.046 654.999
247.202 -278 1146.99 6888.73 5553.56 4475.64
-74.6935 278 792.964 10442.8 8244.6 6363.6
278 -175.684 1254.3 6888.73 5553.56 4475.64
-43.8647 42.2605 1306 6888.73 5553.56 4475.64
278 182.073 1257.8 1874.61 1480.01 1142.34
278 165.931 895.125 6888.73 5553.56 4475.64
-270.16 77.0285 1306 6888.73 5553.56 4475.64
278 174.484 1006.06 6888.73 5553.56 4475.64
-3.10308 226.365 1306 6888.73 5553.56 4475.64
-1.52988 278 1281.96 5813.15 4589.49 3542.4
28.7105 277.423 1306 173.514 134.155 99.1724
-259.665 41.7389 1306 6888.73 5553.56 4475.64
-157.595 -87.3898 1192.4 7825.61 6178.33 4768.75
-244.932 -278 1163.42 3050.81 2358.79 1743.7
-278 -165.722 1152.15 5826.12 4411.36 3123.26
-278 74.1335 1136.76 6888.73 5553.56 4475.64
-278 116.935 959.896 6888.73 5553.56 4475.64
5.41701 46.861 1306 6888.73 5553.56 4475.64
278 69.1614 978.6 10573.6 8347.9 6443.33
-278 -184.171 939.919 19205.4 1564.4 0
-278 -101.023 1095.26 6888.73 5553.56 4475.64
99.3112 207.11 1306 6888.73 5553.56 4475.64
278 264.954 817.354 6888.73 5553.56 4475.64
261.574 278 805.979 9483.87 788.843 0
278 237.466 853.451 11911.2 970.245 0
101.65 185.31 1306 6888.73 5553.56 4475.64
19.6655 278 1205.49 8686.06 6857.66 5293.09
-278 -59.7071 1238.56 12997.2 10049 7428.61
-159.112 96.7508 1306 6888.73 5553.56 4475.64
-123.292 265.903 1306 6888.73 5553.56 4475.64
156.949 -278 1116.6 6888.73 5553.56 4475.64
278 -190.232 921.767 4923.7 3887.26 3000.39
-278 36.8769 943.067 6888.73 5553.56 4475.64
-119.319 -78 1168.43 2277.76 5902.35 961.916
-278 10.6678 1114.33 6888.73 5553.56 4475.64
-190.664 278 1234.23 1224.45 3172.92 517.096
278 265.531 1160.6 6888.73 5553.56 4475.64
276.511 278 1179.95 888.955 73.9409 0
53.2198 158.272 1306 6888.73 5553.56 4475.64
160.326 -278 1131.44 4990.08 3939.67 3040.84
278 -176.121 1136.95 6528.34 5047.5 3731.3
217.681 70.9696 1306 2578.78 205.712 0
271.023 94.917 1306 6888.73 5553.56 4475.64
278 254.857 1055.3 6888.73 5553.56 4475.64
247 48.6987 1306 6888.73 5553.56 4475.64
278 18.007 1274.14 8124.98 6414.68 4951.18
247.446 278 1021.53 1364.76 111.169 0
278 258.367 1052.11 1128.74 90.0411 0
-218.062 -278 1029.8 6888.73 5553.56 4475.64
